<?xml version="1.0" encoding="UTF-8"?>
<svg width="14px" height="26px" viewBox="0 0 14 26" version="1.1" xmlns="http://www.w3.org/2000/svg" xmlns:xlink="http://www.w3.org/1999/xlink">
    <title>RightArrow</title>
    <g id="Welcome" stroke="none" stroke-width="1" fill="none" fill-rule="evenodd">
        <g id="Playlist-Detail-Full-Bleed" transform="translate(-1351.000000, -853.000000)" fill="#00AFF0" fill-rule="nonzero">
            <path d="M1364.52511,853.426074 C1364.81735,853.72906 1364.92694,854.107793 1364.92694,854.486526 C1364.92694,854.865259 1364.78082,855.243991 1364.52511,855.546977 L1354.44292,866.037873 L1364.56164,876.453023 C1364.85388,876.756009 1365,877.134741 1365,877.513474 C1365,877.892207 1364.85388,878.27094 1364.59817,878.573926 C1364.05023,879.142025 1363.13699,879.142025 1362.55251,878.573926 L1351.41096,867.098325 C1350.86301,866.530226 1350.86301,865.583394 1351.41096,864.977422 L1362.51598,853.426074 C1363.06393,852.857975 1363.97717,852.857975 1364.52511,853.426074 Z" id="RightArrow" transform="translate(1358.000000, 866.000000) scale(-1, 1) translate(-1358.000000, -866.000000) "></path>
        </g>
    </g>
</svg>